<svg width="48" height="48" viewBox="0 0 48 48" fill="none" xmlns="http://www.w3.org/2000/svg">
<g clip-path="url(#clip0_10172_13610)">
<g clip-path="url(#clip1_10172_13610)">
<path d="M46.8 0H1.2C0.537258 0 0 0.537258 0 1.2V46.8C0 47.4627 0.537258 48 1.2 48H46.8C47.4627 48 48 47.4627 48 46.8V1.2C48 0.537258 47.4627 0 46.8 0Z" fill="white"/>
<path d="M23.9994 17.4376C19.8485 17.4376 15.6975 17.8786 11.9965 20.0416C11.353 22.0444 11 24.1976 11 26.4518C11 35.4004 16.538 42.8541 24 45C31.4627 42.8541 37 35.4004 37 26.4518C37 24.1976 36.6445 22.0444 36.0023 20.0416C32.3012 17.8786 28.1502 17.4376 23.9994 17.4376ZM23.9978 3C18.2635 3 14.8978 7.83261 14.8978 13.769V17.1513C16.1978 16.3632 16.1978 16.1722 18.1478 15.7883V13.769C18.1478 9.69636 20.0328 6.28124 23.8723 6.28124C23.9146 6.28124 23.9575 6.28124 24.0004 6.28124C28.2884 6.28124 29.8478 9.41417 29.8478 13.769V15.7883C31.7978 16.1722 31.7978 16.3632 33.0978 17.1513V13.769C33.0978 7.83261 29.7334 3 23.9978 3ZM23.9995 21.4516C27.0077 21.4516 29.9769 22.0691 32.6815 23.2484C32.9597 24.41 33.1001 25.5335 33.1001 26.7383C33.1001 32.9294 29.4218 38.4294 24.0001 40.4828C18.5785 38.4294 14.9001 32.9294 14.9001 26.7383C14.9001 25.5302 15.0399 24.4073 15.3168 23.2484C18.0221 22.0691 20.9913 21.4516 23.9995 21.4516Z" fill="#DB0D15"/>
<path d="M25.0321 29.8579C25.8242 29.5336 26.3789 28.9058 26.3789 28.0676C26.3789 26.9272 25.3562 26.0475 24.0961 26.0475C22.8352 26.0475 21.8133 26.9941 21.8133 28.1352C21.8133 28.9727 22.3673 29.5226 23.1594 29.8462L21.8133 32.9618H26.3789L25.0321 29.8579Z" fill="#DB0D15"/>
</g>
</g>
<defs>
<clipPath id="clip0_10172_13610">
<rect width="48" height="48" fill="white"/>
</clipPath>
<clipPath id="clip1_10172_13610">
<rect width="48" height="48" fill="white"/>
</clipPath>
</defs>
</svg>
