<svg width="48" height="48" viewBox="0 0 48 48" fill="none" xmlns="http://www.w3.org/2000/svg">
<g clip-path="url(#clip0_10172_13705)">
<path d="M0 10.7445C0 4.81047 4.81049 0 10.7445 0H37.2555C43.1895 0 48 4.81049 48 10.7445V37.2555C48 43.1895 43.1895 48 37.2555 48H10.7445C4.81047 48 0 43.1895 0 37.2555V10.7445Z" fill="#FEEB29"/>
<path fill-rule="evenodd" clip-rule="evenodd" d="M27.4356 23.2245C27.1822 23.1453 26.921 23.2878 26.8418 23.5412C26.8418 23.5491 26.8418 23.5491 26.8339 23.557C26.7626 23.8103 26.921 24.0716 27.1743 24.1428L27.7443 24.2932L27.3485 24.7912C27.3406 24.7999 27.3406 24.8078 27.3326 24.8157C27.1822 25.0295 27.2297 25.3303 27.4435 25.4807C27.4514 25.4887 27.4593 25.4887 27.4593 25.4966C27.681 25.6391 27.9818 25.5757 28.1243 25.3533L28.4885 24.7912L28.8526 25.3533C28.8606 25.362 28.8606 25.3699 28.8685 25.3699C29.0189 25.5829 29.3197 25.6391 29.5335 25.4807C29.5414 25.4728 29.5493 25.4728 29.5572 25.4649C29.7631 25.2987 29.7947 24.9978 29.6285 24.7999L29.2326 24.3012L29.8106 24.1507C29.8185 24.1507 29.8185 24.1507 29.8264 24.1428C30.0797 24.0637 30.2222 23.8016 30.1431 23.5491C30.1431 23.5412 30.1431 23.5412 30.1351 23.5332C30.0481 23.2799 29.7789 23.1532 29.5256 23.2324L28.9239 23.4382L28.9714 22.8366V22.797C28.9714 22.5278 28.7497 22.3062 28.4806 22.3062H28.4489C28.1797 22.322 27.9739 22.5595 27.9897 22.8366L28.0293 23.4382L27.4435 23.2324C27.4514 23.2324 27.4435 23.2324 27.4356 23.2245Z" fill="#242424"/>
<path fill-rule="evenodd" clip-rule="evenodd" d="M25.6384 23.5251C25.5513 23.2717 25.2822 23.1458 25.0288 23.2242L24.4272 23.4301L24.4747 22.8284V22.7888C24.4747 22.5196 24.253 22.298 23.9838 22.298H23.9522C23.683 22.3138 23.4772 22.5521 23.493 22.8284L23.5326 23.4301L22.9468 23.2242C22.9388 23.2242 22.9309 23.2163 22.9309 23.2163C22.6776 23.1371 22.4163 23.2796 22.3372 23.533C22.3372 23.5417 22.3372 23.5417 22.3293 23.5488C22.258 23.8021 22.4163 24.0634 22.6697 24.1354L23.2397 24.2851L22.8438 24.7838C22.8359 24.7917 22.8359 24.7996 22.828 24.8076C22.6776 25.0213 22.7251 25.3229 22.9388 25.4726C22.9468 25.4805 22.9547 25.4805 22.9547 25.4884C23.1763 25.6309 23.4772 25.5676 23.6197 25.3459L23.9838 24.7838L24.348 25.3459C24.3559 25.3538 24.3559 25.3617 24.3638 25.3617C24.5143 25.5755 24.8151 25.6309 25.0368 25.4726C25.0447 25.4646 25.0526 25.4646 25.0605 25.4567C25.2663 25.2905 25.298 24.9896 25.1318 24.7917L24.7359 24.293L25.3138 24.1426C25.3218 24.1426 25.3218 24.1426 25.3297 24.1354C25.583 24.0555 25.7255 23.7942 25.6463 23.5417C25.6384 23.5417 25.6384 23.533 25.6384 23.5251Z" fill="#242424"/>
<path fill-rule="evenodd" clip-rule="evenodd" d="M20.8249 24.1428C21.0782 24.0629 21.2207 23.8016 21.1416 23.5491C21.1416 23.5412 21.1416 23.5412 21.1337 23.5324C21.0466 23.2799 20.7774 23.1532 20.5241 23.2324L19.9224 23.4374L19.9699 22.8366V22.797C19.9699 22.5278 19.7482 22.3062 19.4791 22.3062H19.4474C19.1782 22.322 18.9724 22.5595 18.9882 22.8366L19.0278 23.4374L18.442 23.2324C18.4341 23.2324 18.4262 23.2245 18.4262 23.2245C18.1728 23.1453 17.9116 23.2878 17.8324 23.5412C17.8324 23.5491 17.8324 23.5491 17.8245 23.557C17.7532 23.8103 17.9116 24.0716 18.1649 24.1428L18.7349 24.2924L18.3391 24.7912C18.3312 24.7999 18.3312 24.8078 18.3232 24.8157C18.1728 25.0295 18.2203 25.3303 18.4341 25.4799C18.442 25.4887 18.4499 25.4887 18.4499 25.4966C18.6716 25.6391 18.9724 25.5757 19.1149 25.3533L19.4791 24.7912L19.8432 25.3533C19.8512 25.362 19.8512 25.3699 19.8591 25.3699C20.0095 25.5829 20.3103 25.6391 20.532 25.4799C20.5399 25.4728 20.5478 25.4728 20.5557 25.4649C20.7616 25.2987 20.7932 24.9978 20.627 24.7999L20.2312 24.3012L20.8091 24.1507C20.8091 24.1428 20.817 24.1428 20.8249 24.1428Z" fill="#242424"/>
<path fill-rule="evenodd" clip-rule="evenodd" d="M23.9998 8.1665C15.2678 8.1665 8.1665 15.3081 8.1665 24.0798C8.1665 30.2706 11.7923 35.9469 17.4053 38.5348C17.5636 38.6061 17.7378 38.6457 17.904 38.6457C18.3553 38.6457 18.7828 38.3931 18.9886 37.9577C19.2657 37.364 19.0044 36.6507 18.4107 36.3823C13.629 34.1735 10.5494 29.3436 10.5494 24.0798C10.5494 16.6144 16.5819 10.5415 23.9998 10.5415C31.4178 10.5415 37.4582 16.6144 37.4582 24.0798C37.4582 29.3436 34.3786 34.1735 29.6048 36.3823C29.0111 36.6586 28.7498 37.364 29.0269 37.9577C29.304 38.5515 30.0086 38.8119 30.6023 38.5348C36.2073 35.9469 39.8332 30.2706 39.8332 24.0798C39.8332 15.3081 32.7319 8.1665 23.9998 8.1665Z" fill="#242424"/>
<path fill-rule="evenodd" clip-rule="evenodd" d="M35.1383 23.9766C35.1383 17.8016 30.1429 12.7816 23.9996 12.7816C17.8563 12.7816 12.8608 17.8016 12.8608 23.9766C12.8608 28.5682 15.6 32.6453 19.8354 34.3632C19.9858 34.4179 20.1363 34.4495 20.2788 34.4495C20.7458 34.4495 21.1971 34.1732 21.3792 33.7062C21.6246 33.0966 21.3317 32.3999 20.7221 32.1545C17.3892 30.8007 15.2358 27.5937 15.2358 23.9766C15.2358 19.1149 19.1625 15.1566 23.9996 15.1566C28.8367 15.1566 32.7633 19.1149 32.7633 23.9766C32.7633 27.5866 30.6258 30.8007 27.3088 32.1624C26.6992 32.4157 26.4142 33.1037 26.6596 33.7141C26.9129 34.3229 27.6017 34.6087 28.2113 34.3632C32.4229 32.6295 35.1383 28.5516 35.1383 23.9766Z" fill="#242424"/>
</g>
<defs>
<clipPath id="clip0_10172_13705">
<rect width="48" height="48" fill="white"/>
</clipPath>
</defs>
</svg>
