<svg width="48" height="48" viewBox="0 0 48 48" fill="none" xmlns="http://www.w3.org/2000/svg">
<g clip-path="url(#clip0_10172_13670)">
<g clip-path="url(#clip1_10172_13670)">
<path d="M0 17.6C0 11.4394 0 8.35913 1.19893 6.0061C2.25354 3.93632 3.93632 2.25354 6.0061 1.19893C8.35913 0 11.4394 0 17.6 0H30.4C36.5606 0 39.6409 0 41.9939 1.19893C44.0637 2.25354 45.7465 3.93632 46.8011 6.0061C48 8.35913 48 11.4394 48 17.6V30.4C48 36.5606 48 39.6409 46.8011 41.9939C45.7465 44.0637 44.0637 45.7465 41.9939 46.8011C39.6409 48 36.5606 48 30.4 48H17.6C11.4394 48 8.35913 48 6.0061 46.8011C3.93632 45.7465 2.25354 44.0637 1.19893 41.9939C0 39.6409 0 36.5606 0 30.4V17.6Z" fill="#FF7800"/>
<g filter="url(#filter0_d_10172_13670)">
<path fill-rule="evenodd" clip-rule="evenodd" d="M20.1163 10C15.1052 10 11 14.1884 11 19.1953C11 24.1849 15.1208 28.3906 20.1163 28.3906C21.4991 28.3906 22.754 28.1237 23.8961 27.6004C24.2812 27.424 24.7357 27.5093 25.0306 27.8134L26.8841 29.7248H29.5332C30.0854 29.7248 30.5332 30.1725 30.5332 30.7248V32.3848C30.5332 32.8617 30.9201 33.2491 31.3983 33.2491H33.1051C33.6574 33.2491 34.1051 33.6968 34.1051 34.2491V36.1357C34.1051 36.6126 34.492 37 34.9702 37H37.1348C37.6131 37 38 36.6126 38 36.1357V33.2088C38 32.3729 37.6668 31.5714 37.0739 30.9815L29.0776 23.0257C28.8156 22.765 28.7187 22.381 28.8258 22.0272C29.0956 21.1357 29.2326 20.1935 29.2326 19.1953C29.2326 14.1838 25.1297 10 20.1163 10ZM9 19.1953C9 13.1077 13.977 8 20.1163 8C26.2577 8 31.2326 13.1028 31.2326 19.1953C31.2326 20.1678 31.1227 21.1094 30.9007 22.0183L38.4846 29.5637C39.4546 30.5288 40 31.8406 40 33.2088V36.1357C40 37.7181 38.7168 39 37.1348 39H34.9702C33.3883 39 32.1051 37.7181 32.1051 36.1357V35.2491H31.3983C29.8164 35.2491 28.5332 33.9672 28.5332 32.3848V31.7248H26.4608C26.1903 31.7248 25.9312 31.6152 25.7429 31.421L24.0686 29.6943C22.8328 30.1609 21.5128 30.3906 20.1163 30.3906C13.9923 30.3906 9 25.2654 9 19.1953ZM17.9931 15.5382C17.1745 15.5382 16.4953 16.22 16.4953 17.0556C16.4953 17.8741 17.1905 18.5729 17.9931 18.5729C18.7788 18.5729 19.491 17.8581 19.491 17.0556C19.491 16.236 18.7948 15.5382 17.9931 15.5382ZM14.4953 17.0556C14.4953 15.1393 16.0462 13.5382 17.9931 13.5382C19.9218 13.5382 21.491 15.1541 21.491 17.0556C21.491 18.9391 19.9068 20.5729 17.9931 20.5729C16.0613 20.5729 14.4953 18.9538 14.4953 17.0556ZM28.0795 24.074C28.4715 23.685 29.1047 23.6875 29.4937 24.0795L36.9622 31.6064C37.3512 31.9985 37.3488 32.6316 36.9567 33.0206C36.5647 33.4096 35.9315 33.4072 35.5425 33.0151L28.074 25.4882C27.685 25.0962 27.6874 24.463 28.0795 24.074Z" fill="white"/>
</g>
</g>
</g>
<defs>
<filter id="filter0_d_10172_13670" x="8" y="8" width="33" height="33" filterUnits="userSpaceOnUse" color-interpolation-filters="sRGB">
<feFlood flood-opacity="0" result="BackgroundImageFix"/>
<feColorMatrix in="SourceAlpha" type="matrix" values="0 0 0 0 0 0 0 0 0 0 0 0 0 0 0 0 0 0 127 0" result="hardAlpha"/>
<feOffset dy="1"/>
<feGaussianBlur stdDeviation="0.5"/>
<feColorMatrix type="matrix" values="0 0 0 0 0.384314 0 0 0 0 0.180392 0 0 0 0 0 0 0 0 0.12 0"/>
<feBlend mode="normal" in2="BackgroundImageFix" result="effect1_dropShadow_10172_13670"/>
<feBlend mode="normal" in="SourceGraphic" in2="effect1_dropShadow_10172_13670" result="shape"/>
</filter>
<clipPath id="clip0_10172_13670">
<rect width="48" height="48" fill="white"/>
</clipPath>
<clipPath id="clip1_10172_13670">
<rect width="48" height="48" fill="white"/>
</clipPath>
</defs>
</svg>
